<svg xmlns="http://www.w3.org/2000/svg" width="138" height="43" viewBox="0 0 138 43">
    <path fill="#979797" fill-rule="nonzero" d="M72.729 10.793a2.785 2.785 0 1 1-5.572 0c0-1.548 1.2-2.795 2.786-2.795 1.586.043 2.786 1.29 2.786 2.795zm-11.486 5.633v.688s-1.329-1.72-4.157-1.72c-4.672 0-8.315 3.569-8.315 8.514 0 4.902 3.6 8.514 8.315 8.514 2.871 0 4.157-1.763 4.157-1.763v.731c0 .344.257.602.6.602h3.471V15.824h-3.471c-.343 0-.6.301-.6.602zm0 10.363c-.643.946-1.929 1.763-3.472 1.763-2.742 0-4.842-1.72-4.842-4.644 0-2.924 2.1-4.644 4.842-4.644 1.5 0 2.872.86 3.472 1.763v5.762zm6.643-10.965H72v16.168h-4.114V15.824zm61.457-.43c-2.829 0-4.157 1.72-4.157 1.72V8.041h-4.115v23.951h3.472c.343 0 .6-.301.6-.602v-.731s1.328 1.763 4.157 1.763c4.671 0 8.314-3.612 8.314-8.514 0-4.902-3.643-8.514-8.271-8.514zm-.686 13.115c-1.586 0-2.828-.817-3.471-1.763v-5.762c.643-.86 2.014-1.763 3.471-1.763 2.743 0 4.843 1.72 4.843 4.644 0 2.924-2.1 4.644-4.843 4.644zm-9.728-6.106v9.632h-4.115v-9.159c0-2.666-.857-3.741-3.171-3.741-1.243 0-2.529.645-3.343 1.591v11.266h-4.114V15.824h3.257c.343 0 .6.301.6.602v.688c1.2-1.247 2.786-1.72 4.371-1.72 1.8 0 3.3.516 4.5 1.548 1.457 1.204 2.015 2.752 2.015 5.461zM94.2 15.394c-2.829 0-4.157 1.72-4.157 1.72V8.041h-4.114v23.951H89.4c.343 0 .6-.301.6-.602v-.731s1.329 1.763 4.157 1.763c4.672 0 8.314-3.612 8.314-8.514.043-4.902-3.6-8.514-8.271-8.514zm-.686 13.115c-1.585 0-2.828-.817-3.471-1.763v-5.762c.643-.86 2.014-1.763 3.471-1.763 2.743 0 4.843 1.72 4.843 4.644 0 2.924-2.1 4.644-4.843 4.644zM82.371 15.394c1.243 0 1.886.215 1.886.215v3.827s-3.428-1.161-5.571 1.29v11.309H74.57V15.824h3.472c.343 0 .6.301.6.602v.688c.771-.903 2.443-1.72 3.728-1.72zM39.643 30.53c-.214-.516-.429-1.075-.643-1.548-.343-.774-.686-1.505-.986-2.193l-.043-.043A449.448 449.448 0 0 0 28.5 7.31l-.129-.258c-.342-.645-.685-1.333-1.028-2.021-.429-.774-.857-1.591-1.543-2.365C24.429.946 22.457 0 20.357 0c-2.143 0-4.071.946-5.486 2.58-.642.774-1.114 1.591-1.542 2.365A87.877 87.877 0 0 1 12.3 6.966l-.129.258C8.871 13.674 5.657 20.21 2.7 26.66l-.043.086c-.3.688-.643 1.419-.986 2.193-.214.473-.428.989-.642 1.548C.47 32.078.3 33.583.514 35.131a9.133 9.133 0 0 0 5.572 7.138 8.776 8.776 0 0 0 3.471.688 9.72 9.72 0 0 0 1.114-.086c1.415-.172 2.872-.645 4.286-1.462 1.757-.989 3.429-2.408 5.314-4.472 1.886 2.064 3.6 3.483 5.315 4.472 1.414.817 2.871 1.29 4.285 1.462a9.72 9.72 0 0 0 1.115.086c1.2 0 2.4-.215 3.471-.688 3-1.204 5.1-3.956 5.572-7.138.342-1.505.171-3.01-.386-4.601zm-19.329 2.236C18 29.842 16.5 27.09 15.986 24.768c-.215-.989-.257-1.849-.129-2.623a4.18 4.18 0 0 1 .686-1.806c.814-1.161 2.186-1.892 3.771-1.892 1.586 0 3 .688 3.772 1.892.343.516.6 1.118.685 1.806.129.774.086 1.677-.128 2.623-.514 2.279-2.014 5.031-4.329 7.998zm17.1 2.021a6.386 6.386 0 0 1-3.9 5.031c-1.028.43-2.143.559-3.257.43-1.071-.129-2.143-.473-3.257-1.118-1.543-.86-3.086-2.193-4.886-4.171 2.829-3.483 4.543-6.665 5.186-9.503.3-1.333.343-2.537.214-3.655a6.99 6.99 0 0 0-1.157-2.924c-1.328-1.935-3.557-3.053-6.043-3.053-2.485 0-4.714 1.161-6.043 3.053a6.99 6.99 0 0 0-1.157 2.924 8.957 8.957 0 0 0 .215 3.655c.642 2.838 2.4 6.063 5.185 9.546-1.757 1.978-3.343 3.311-4.885 4.171-1.115.645-2.186.989-3.258 1.118a6.834 6.834 0 0 1-3.257-.43 6.386 6.386 0 0 1-3.9-5.031 7.14 7.14 0 0 1 .386-3.354c.129-.43.343-.86.557-1.376.3-.688.643-1.419.986-2.15l.043-.086a470.723 470.723 0 0 1 9.428-19.307l.129-.258c.343-.645.686-1.333 1.028-1.978.343-.688.729-1.333 1.2-1.892.9-1.032 2.1-1.591 3.429-1.591 1.329 0 2.529.559 3.429 1.591.471.559.857 1.204 1.2 1.892.342.645.685 1.333 1.028 1.978l.129.258a571.207 571.207 0 0 1 9.385 19.35v.043c.343.688.643 1.462.986 2.15.214.516.429.946.557 1.376.343 1.118.472 2.193.3 3.311z"/>
</svg>
