<svg xmlns="http://www.w3.org/2000/svg" width="129" height="43" viewBox="0 0 129 43">
    <g fill="#979797" fill-rule="evenodd">
        <path fill-rule="nonzero" d="M55.303 22.542c0 6.1-4.773 10.597-10.63 10.597-5.858 0-10.631-4.496-10.631-10.597 0-6.145 4.773-10.598 10.63-10.598 5.858 0 10.63 4.453 10.63 10.598zm-4.654 0c0-3.813-2.766-6.422-5.977-6.422-3.21 0-5.977 2.609-5.977 6.422 0 3.774 2.767 6.42 5.977 6.42 3.21 0 5.977-2.65 5.977-6.42zM78.236 22.542c0 6.1-4.773 10.597-10.63 10.597-5.858 0-10.631-4.496-10.631-10.597 0-6.14 4.773-10.598 10.63-10.598 5.858 0 10.631 4.453 10.631 10.598zm-4.653 0c0-3.813-2.767-6.422-5.977-6.422-3.211 0-5.977 2.609-5.977 6.422 0 3.774 2.766 6.42 5.977 6.42 3.21 0 5.977-2.65 5.977-6.42zM100.214 12.585V31.61c0 7.826-4.615 11.022-10.072 11.022-5.136 0-8.227-3.435-9.393-6.244l4.052-1.687c.721 1.725 2.489 3.76 5.337 3.76 3.492 0 5.656-2.155 5.656-6.211v-1.524h-.162c-1.042 1.285-3.048 2.408-5.58 2.408-5.299 0-10.153-4.615-10.153-10.554 0-5.982 4.854-10.636 10.153-10.636 2.527 0 4.534 1.123 5.58 2.37h.162V12.59h4.42v-.004zm-4.09 9.995c0-3.732-2.49-6.46-5.657-6.46-3.21 0-5.9 2.728-5.9 6.46 0 3.693 2.69 6.383 5.9 6.383 3.168 0 5.657-2.69 5.657-6.383z"/>
        <path d="M107.5 1.433V32.49h-4.539V1.433z"/>
        <path fill-rule="nonzero" d="M125.187 26.03l3.612 2.407c-1.165 1.725-3.975 4.697-8.829 4.697-6.02 0-10.516-4.654-10.516-10.597 0-6.302 4.534-10.597 9.995-10.597 5.5 0 8.19 4.376 9.068 6.741l.483 1.204-14.166 5.867c1.084 2.126 2.771 3.21 5.136 3.21 2.37 0 4.013-1.165 5.217-2.933zm-11.118-3.813l9.47-3.932c-.52-1.324-2.088-2.246-3.932-2.246-2.365 0-5.657 2.088-5.538 6.178z"/>
        <path d="M16.86 19.785v-4.496h15.151c.148.783.225 1.71.225 2.714 0 3.373-.922 7.544-3.894 10.516-2.89 3.01-6.584 4.615-11.476 4.615-9.069 0-16.694-7.387-16.694-16.455C.172 7.611 7.797.225 16.866.225c5.016 0 8.59 1.968 11.275 4.534L24.97 7.93c-1.926-1.806-4.534-3.21-8.108-3.21-6.622 0-11.801 5.336-11.801 11.958s5.179 11.959 11.8 11.959c4.296 0 6.742-1.725 8.31-3.292 1.27-1.27 2.106-3.086 2.436-5.566l-10.745.005z"/>
    </g>
</svg>
