<svg xmlns="http://www.w3.org/2000/svg" width="16" height="16" viewBox="0 0 16 16">
    <path fill="#007FFF" fill-rule="nonzero" d="M8 0c2.173 0 2.445.01 3.3.049 2.907.133 4.521 1.75 4.652 4.653C15.991 5.555 16 5.827 16 8s-.01 2.445-.049 3.299c-.131 2.908-1.75 4.52-4.652 4.653-.854.039-1.126.048-3.299.048s-2.445-.01-3.299-.048c-2.908-.133-4.52-1.748-4.653-4.653C.009 10.445 0 10.173 0 8s.01-2.445.049-3.299C.182 1.793 1.797.181 4.702.048 5.555.009 5.827 0 8 0zm0 3.892a4.108 4.108 0 1 0 0 8.216 4.108 4.108 0 0 0 0-8.216zm0 6.775a2.666 2.666 0 1 1 0-5.333 2.666 2.666 0 0 1 0 5.333zm4.27-7.897a.96.96 0 1 0 0 1.92.96.96 0 0 0 0-1.92z"/>
</svg>
