<svg xmlns="http://www.w3.org/2000/svg" width="21" height="13" viewBox="0 0 21 13">
    <path fill="#007FFF" fill-rule="nonzero" d="M19.066 1.733H13V0h6.066v1.733zm1.496 8.667c-.383 1.124-1.758 2.6-4.42 2.6-2.665 0-4.823-1.498-4.823-4.918 0-3.389 2.015-5.131 4.738-5.131 2.67 0 4.302 1.544 4.658 3.836.067.438.094 1.03.082 1.855h-6.956c.112 2.782 3.018 2.87 3.976 1.758h2.745zm-6.66-3.467h4.302c-.09-1.34-.984-1.923-2.147-1.923-1.27 0-1.973.666-2.156 1.923zM5.603 12.99H0V.018h6.026c4.746.07 4.836 4.718 2.357 5.985 3 1.092 3.1 6.987-2.78 6.987zM2.6 5.2h3.106c2.174 0 2.519-2.6-.27-2.6H2.6v2.6zm2.939 2.6H2.6v2.614h2.895c2.648 0 2.486-2.614.044-2.614z"/>
</svg>
