<svg xmlns="http://www.w3.org/2000/svg" width="17" height="14" viewBox="0 0 17 14">
    <path fill="#007FFF" fill-rule="evenodd" d="M17 1.636a6.963 6.963 0 0 1-2.003.548A3.493 3.493 0 0 0 16.53.255c-.673.4-1.42.69-2.215.846A3.482 3.482 0 0 0 11.77 0C9.518 0 7.863 2.1 8.372 4.282A9.901 9.901 0 0 1 1.184.638a3.492 3.492 0 0 0 1.078 4.657 3.473 3.473 0 0 1-1.578-.437C.645 6.474 1.804 7.986 3.48 8.322a3.496 3.496 0 0 1-1.576.06 3.49 3.49 0 0 0 3.259 2.421A7.013 7.013 0 0 1 0 12.248a9.874 9.874 0 0 0 5.346 1.567c6.476 0 10.135-5.469 9.914-10.374A7.1 7.1 0 0 0 17 1.636z"/>
</svg>
